
<svg xmlns="http://www.w3.org/2000/svg" width="256.896" height="57.193" viewBox="0 0 256.896 57.193">
<defs><style>.a{fill:#ee3124;}.b{fill:#fff;}</style></defs>
<g transform="translate(-84.6 -85.1)">
<g transform="translate(84.6 85.1)">
<path class="a" d="M164.791,94a10.259,10.259,0,0,0-7.217-7.217C151.168,85.1,125.539,85.1,125.539,85.1S99.91,85.1,93.5,86.786A10.259,10.259,0,0,0,86.286,94C84.6,100.41,84.6,113.7,84.6,113.7s0,13.354,1.686,19.694a10.259,10.259,0,0,0,7.217,7.217c6.407,1.686,32.036,1.686,32.036,1.686s25.629,0,32.036-1.686a10.259,10.259,0,0,0,7.217-7.217c1.686-6.407,1.686-19.694,1.686-19.694S166.478,100.41,164.791,94Z" transform="translate(-84.6 -85.1)"/>
<path class="b" d="M133.1,133.917l21.312-12.275L133.1,109.3Z" transform="translate(-100.389 -92.978)"/>
</g>
<g transform="translate(174.638 87.258)">
<path class="b" d="M258.751,145.243a8.726,8.726,0,0,1-3.44-5.126,33.793,33.793,0,0,1-1.012-9.172v-5.193a31.728,31.728,0,0,1,1.147-9.307,9.621,9.621,0,0,1,3.642-5.126,11.9,11.9,0,0,1,6.542-1.619,11.421,11.421,0,0,1,6.407,1.619,9.356,9.356,0,0,1,3.507,5.126,31.1,31.1,0,0,1,1.147,9.307v5.193a31.511,31.511,0,0,1-1.079,9.24,9.357,9.357,0,0,1-3.507,5.126,11.834,11.834,0,0,1-6.61,1.619A12.57,12.57,0,0,1,258.751,145.243Zm9.1-5.6a16.834,16.834,0,0,0,.674-5.733v-11.2a16.9,16.9,0,0,0-.674-5.665,2.42,2.42,0,0,0-4.654,0,16.9,16.9,0,0,0-.674,5.665v11.2a16.834,16.834,0,0,0,.674,5.733,2.37,2.37,0,0,0,2.361,1.754A2.466,2.466,0,0,0,267.856,139.645Z" transform="translate(-229.885 -95.267)"/>
<path class="b" d="M441.624,130.947v1.821a48.857,48.857,0,0,0,.2,5.193,4.316,4.316,0,0,0,.877,2.5,2.367,2.367,0,0,0,2.023.809,2.53,2.53,0,0,0,2.5-1.416,12.384,12.384,0,0,0,.742-4.721l6.947.4a6.959,6.959,0,0,1,.067,1.281c0,3.3-.877,5.8-2.7,7.419s-4.384,2.428-7.689,2.428c-3.979,0-6.744-1.281-8.363-3.777s-2.428-6.34-2.428-11.6v-6.272c0-5.4.809-9.307,2.5-11.8s4.519-3.709,8.5-3.709a11.374,11.374,0,0,1,6.407,1.551,8.252,8.252,0,0,1,3.1,4.721,34.53,34.53,0,0,1,.877,8.9v6.137H441.624Zm1.012-15.108a5.152,5.152,0,0,0-.809,2.5,49.445,49.445,0,0,0-.2,5.261v2.563h5.935V123.6a51.223,51.223,0,0,0-.2-5.261,4.62,4.62,0,0,0-.877-2.5,2.434,2.434,0,0,0-1.888-.742A2.489,2.489,0,0,0,442.635,115.84Z" transform="translate(-288.322 -95.202)"/>
<path class="b" d="M227.272,124.25,218.1,91h8.026l3.237,15.04q1.214,5.564,1.821,9.51h.2c.27-1.888.877-4.991,1.821-9.442L236.58,91h8.026L235.3,124.25v15.984H227.34V124.25Z" transform="translate(-218.1 -89.179)"/><path class="b" d="M315.519,110.7v35.948h-6.34l-.674-4.384h-.2a8.3,8.3,0,0,1-7.756,4.991,6.134,6.134,0,0,1-5.261-2.361c-1.147-1.551-1.686-3.979-1.686-7.351V110.7h8.093v26.371a8.221,8.221,0,0,0,.54,3.44,1.819,1.819,0,0,0,1.754,1.012,3.461,3.461,0,0,0,2.023-.674,3.287,3.287,0,0,0,1.416-1.619V110.7Z" transform="translate(-242.679 -95.592)"/><path class="b" d="M377.019,110.7v35.948h-6.34l-.674-4.384h-.2a8.3,8.3,0,0,1-7.756,4.991,6.134,6.134,0,0,1-5.261-2.361c-1.147-1.551-1.686-3.979-1.686-7.351V110.7h8.093v26.371a8.221,8.221,0,0,0,.54,3.44,1.819,1.819,0,0,0,1.754,1.012,3.46,3.46,0,0,0,2.023-.674,3.287,3.287,0,0,0,1.416-1.619V110.7Z" transform="translate(-262.701 -95.592)"/><path class="b" d="M347.143,97.607h-8.026V140.3h-7.891V97.675H323.2V91.2h23.943Z" transform="translate(-252.316 -89.244)"/><path class="b" d="M416.719,109.14a9.1,9.1,0,0,0-2.361-4.923,6.44,6.44,0,0,0-4.519-1.551,7.271,7.271,0,0,0-4.182,1.281,8.249,8.249,0,0,0-2.968,3.3h-.067V88.3H394.8v51.055h6.677l.809-3.372h.2a6.891,6.891,0,0,0,2.833,2.9,8.761,8.761,0,0,0,4.182,1.079,6.32,6.32,0,0,0,6-3.777c1.281-2.5,1.956-6.475,1.956-11.8v-5.665A48.968,48.968,0,0,0,416.719,109.14ZM409.3,123.776a46.685,46.685,0,0,1-.337,6.137,6.862,6.862,0,0,1-1.079,3.17,2.627,2.627,0,0,1-2.023.944,3.341,3.341,0,0,1-1.821-.472,3.9,3.9,0,0,1-1.349-1.416V111.771a5.516,5.516,0,0,1,1.416-2.428,3.272,3.272,0,0,1,2.158-.944,2.186,2.186,0,0,1,1.888.944,7.711,7.711,0,0,1,.944,3.237,54.374,54.374,0,0,1,.27,6.475v4.721Z" transform="translate(-275.626 -88.3)"/></g></g></svg>
